<svg width="1878" height="1878" fill="none" xmlns="http://www.w3.org/2000/svg"><g opacity=".24" filter="url(#filter0_f)"><path d="M1414 939c0 262.34-212.66 475-475 475-262.335 0-475-212.66-475-475 0-262.335 212.665-475 475-475 262.34 0 475 212.665 475 475z" fill="#C4C4C4"/><path d="M1414 939c0 262.34-212.66 475-475 475-262.335 0-475-212.66-475-475 0-262.335 212.665-475 475-475 262.34 0 475 212.665 475 475z" fill="url(#paint0_linear)"/></g><defs><linearGradient id="paint0_linear" x1="463.688" y1="939.346" x2="1413.27" y2="939.346" gradientUnits="userSpaceOnUse"><stop stop-color="#40CBF6"/><stop offset="1" stop-color="#82C041"/></linearGradient><filter id="filter0_f" x="0" y="0" width="1878" height="1878" filterUnits="userSpaceOnUse" color-interpolation-filters="sRGB"><feFlood flood-opacity="0" result="BackgroundImageFix"/><feBlend in="SourceGraphic" in2="BackgroundImageFix" result="shape"/><feGaussianBlur stdDeviation="232" result="effect1_foregroundBlur"/></filter></defs></svg>