<svg width="120" height="120" viewBox="0 0 24 29" fill="none" xmlns="http://www.w3.org/2000/svg">
<path d="M12 14.6762C13.1322 14.6762 14.05 13.7584 14.05 12.6262C14.05 11.494 13.1322 10.5762 12 10.5762C10.8678 10.5762 9.95 11.494 9.95 12.6262C9.95 13.7584 10.8678 14.6762 12 14.6762Z" fill="#61DAFB"/>
<path d="M12 16.8263C18.0751 16.8263 23 14.9459 23 12.6263C23 10.3067 18.0751 8.42627 12 8.42627C5.92487 8.42627 1 10.3067 1 12.6263C1 14.9459 5.92487 16.8263 12 16.8263Z" stroke="#61DAFB"/>
<path d="M8.36269 14.7263C11.4003 19.9875 15.4912 23.3124 17.5 22.1526C19.5088 20.9928 18.6749 15.7875 15.6373 10.5263C12.5997 5.26506 8.50883 1.9402 6.5 3.1C4.49117 4.2598 5.32513 9.46506 8.36269 14.7263Z" stroke="#61DAFB"/>
<path d="M8.36269 10.5262C5.32513 15.7874 4.49117 20.9927 6.5 22.1525C8.50883 23.3123 12.5997 19.9874 15.6373 14.7262C18.6749 9.46501 19.5088 4.25975 17.5 3.09995C15.4912 1.94015 11.4003 5.26501 8.36269 10.5262Z" stroke="#61DAFB"/>
<path d="M6.71631 26.562H5.88135V28H5.41016V24.4453H6.58691C6.9873 24.4453 7.29492 24.5365 7.50977 24.7188C7.72624 24.901 7.83447 25.1663 7.83447 25.5146C7.83447 25.736 7.77425 25.9289 7.65381 26.0933C7.53499 26.2576 7.36898 26.3805 7.15576 26.4619L7.99072 27.9707V28H7.48779L6.71631 26.562ZM5.88135 26.1787H6.60156C6.83431 26.1787 7.01904 26.1185 7.15576 25.998C7.29411 25.8776 7.36328 25.7165 7.36328 25.5146C7.36328 25.2949 7.29736 25.1265 7.16553 25.0093C7.03532 24.8921 6.84652 24.8327 6.59912 24.8311H5.88135V26.1787ZM9.51904 28.0488C9.16097 28.0488 8.86963 27.9316 8.64502 27.6973C8.42041 27.4613 8.30811 27.1463 8.30811 26.7524V26.6694C8.30811 26.4074 8.35775 26.1738 8.45703 25.9688C8.55794 25.762 8.69792 25.6009 8.87695 25.4854C9.05762 25.3682 9.25293 25.3096 9.46289 25.3096C9.80632 25.3096 10.0732 25.4227 10.2637 25.6489C10.4541 25.8752 10.5493 26.1991 10.5493 26.6206V26.8086H8.75977C8.76628 27.069 8.84196 27.2798 8.98682 27.4409C9.1333 27.6004 9.31885 27.6802 9.54346 27.6802C9.70296 27.6802 9.83805 27.6476 9.94873 27.5825C10.0594 27.5174 10.1562 27.4312 10.2393 27.3237L10.5151 27.5386C10.2938 27.8787 9.96175 28.0488 9.51904 28.0488ZM9.46289 25.6807C9.2806 25.6807 9.1276 25.7474 9.00391 25.8809C8.88021 26.0127 8.80371 26.1982 8.77441 26.4375H10.0977V26.4033C10.0846 26.1738 10.0228 25.9964 9.91211 25.8711C9.80143 25.7441 9.65169 25.6807 9.46289 25.6807ZM12.7051 28C12.679 27.9479 12.6579 27.8551 12.6416 27.7217C12.4316 27.9398 12.181 28.0488 11.8896 28.0488C11.6292 28.0488 11.4152 27.9756 11.2476 27.8291C11.0815 27.681 10.9985 27.4938 10.9985 27.2676C10.9985 26.9925 11.1027 26.7793 11.311 26.6279C11.521 26.4749 11.8156 26.3984 12.1948 26.3984H12.6343V26.1909C12.6343 26.033 12.5871 25.9077 12.4927 25.8149C12.3983 25.7205 12.2591 25.6733 12.0752 25.6733C11.9141 25.6733 11.779 25.714 11.6699 25.7954C11.5609 25.8768 11.5063 25.9753 11.5063 26.0908H11.0522C11.0522 25.959 11.0986 25.832 11.1914 25.71C11.2858 25.5863 11.4128 25.4886 11.5723 25.417C11.7334 25.3454 11.91 25.3096 12.1021 25.3096C12.4064 25.3096 12.6449 25.3861 12.8174 25.5391C12.9899 25.6904 13.0794 25.8996 13.0859 26.1665V27.3823C13.0859 27.6248 13.1169 27.8177 13.1787 27.9609V28H12.7051ZM11.9556 27.6558C12.0972 27.6558 12.2314 27.6191 12.3584 27.5459C12.4854 27.4727 12.5773 27.3774 12.6343 27.2603V26.7183H12.2803C11.7269 26.7183 11.4502 26.8802 11.4502 27.2041C11.4502 27.3457 11.4974 27.4564 11.5918 27.5361C11.6862 27.6159 11.8075 27.6558 11.9556 27.6558ZM14.8535 27.6802C15.0146 27.6802 15.1554 27.6313 15.2759 27.5337C15.3963 27.436 15.4631 27.314 15.4761 27.1675H15.9033C15.8952 27.3188 15.8431 27.4629 15.7471 27.5996C15.651 27.7363 15.5225 27.8454 15.3613 27.9268C15.2018 28.0081 15.0326 28.0488 14.8535 28.0488C14.4938 28.0488 14.2074 27.9292 13.9941 27.6899C13.7826 27.4491 13.6768 27.1203 13.6768 26.7036V26.6279C13.6768 26.3708 13.724 26.1421 13.8184 25.9419C13.9128 25.7417 14.0479 25.5863 14.2236 25.4756C14.401 25.3649 14.6102 25.3096 14.8511 25.3096C15.1473 25.3096 15.3931 25.3983 15.5884 25.5757C15.7853 25.7531 15.8903 25.9834 15.9033 26.2666H15.4761C15.4631 26.0957 15.3979 25.9557 15.2808 25.8467C15.1652 25.736 15.022 25.6807 14.8511 25.6807C14.6216 25.6807 14.4434 25.7637 14.3164 25.9297C14.1911 26.0941 14.1284 26.3325 14.1284 26.645V26.7305C14.1284 27.0348 14.1911 27.2692 14.3164 27.4336C14.4417 27.598 14.6208 27.6802 14.8535 27.6802ZM17.0239 24.7188V25.3584H17.5171V25.7075H17.0239V27.3457C17.0239 27.4515 17.0459 27.5312 17.0898 27.585C17.1338 27.637 17.2087 27.6631 17.3145 27.6631C17.3665 27.6631 17.4382 27.6533 17.5293 27.6338V28C17.4105 28.0326 17.2949 28.0488 17.1826 28.0488C16.9808 28.0488 16.8286 27.9878 16.7261 27.8657C16.6235 27.7437 16.5723 27.5703 16.5723 27.3457V25.7075H16.0913V25.3584H16.5723V24.7188H17.0239Z" fill="#61DAFB"/>
</svg>
