<svg width="120" height="120" viewBox="0 0 29 30" fill="none" xmlns="http://www.w3.org/2000/svg">
<path d="M14 14.6762C15.1322 14.6762 16.05 13.7584 16.05 12.6262C16.05 11.494 15.1322 10.5762 14 10.5762C12.8678 10.5762 11.95 11.494 11.95 12.6262C11.95 13.7584 12.8678 14.6762 14 14.6762Z" fill="#9261FB"/>
<path d="M14 16.8263C20.0751 16.8263 25 14.9459 25 12.6263C25 10.3067 20.0751 8.42627 14 8.42627C7.92487 8.42627 3 10.3067 3 12.6263C3 14.9459 7.92487 16.8263 14 16.8263Z" stroke="#9261FB"/>
<path d="M10.3627 14.7263C13.4003 19.9875 17.4912 23.3124 19.5 22.1526C21.5088 20.9928 20.6749 15.7875 17.6373 10.5263C14.5997 5.26506 10.5088 1.9402 8.5 3.1C6.49117 4.2598 7.32513 9.46506 10.3627 14.7263Z" stroke="#9261FB"/>
<path d="M10.3627 10.5262C7.32513 15.7874 6.49117 20.9927 8.5 22.1525C10.5088 23.3123 14.5997 19.9874 17.6373 14.7262C20.6749 9.46501 21.5088 4.25975 19.5 3.09995C17.4912 1.94015 13.4003 5.26501 10.3627 10.5262Z" stroke="#9261FB"/>
<path d="M1.71631 27.562H0.881348V29H0.410156V25.4453H1.58691C1.9873 25.4453 2.29492 25.5365 2.50977 25.7188C2.72624 25.901 2.83447 26.1663 2.83447 26.5146C2.83447 26.736 2.77425 26.9289 2.65381 27.0933C2.53499 27.2576 2.36898 27.3805 2.15576 27.4619L2.99072 28.9707V29H2.48779L1.71631 27.562ZM0.881348 27.1787H1.60156C1.83431 27.1787 2.01904 27.1185 2.15576 26.998C2.29411 26.8776 2.36328 26.7165 2.36328 26.5146C2.36328 26.2949 2.29736 26.1265 2.16553 26.0093C2.03532 25.8921 1.84652 25.8327 1.59912 25.8311H0.881348V27.1787ZM4.51904 29.0488C4.16097 29.0488 3.86963 28.9316 3.64502 28.6973C3.42041 28.4613 3.30811 28.1463 3.30811 27.7524V27.6694C3.30811 27.4074 3.35775 27.1738 3.45703 26.9688C3.55794 26.762 3.69792 26.6009 3.87695 26.4854C4.05762 26.3682 4.25293 26.3096 4.46289 26.3096C4.80632 26.3096 5.07324 26.4227 5.26367 26.6489C5.4541 26.8752 5.54932 27.1991 5.54932 27.6206V27.8086H3.75977C3.76628 28.069 3.84196 28.2798 3.98682 28.4409C4.1333 28.6004 4.31885 28.6802 4.54346 28.6802C4.70296 28.6802 4.83805 28.6476 4.94873 28.5825C5.05941 28.5174 5.15625 28.4312 5.23926 28.3237L5.51514 28.5386C5.29378 28.8787 4.96175 29.0488 4.51904 29.0488ZM4.46289 26.6807C4.2806 26.6807 4.1276 26.7474 4.00391 26.8809C3.88021 27.0127 3.80371 27.1982 3.77441 27.4375H5.09766V27.4033C5.08464 27.1738 5.02279 26.9964 4.91211 26.8711C4.80143 26.7441 4.65169 26.6807 4.46289 26.6807ZM7.70508 29C7.67904 28.9479 7.65788 28.8551 7.6416 28.7217C7.43164 28.9398 7.18099 29.0488 6.88965 29.0488C6.62923 29.0488 6.4152 28.9756 6.24756 28.8291C6.08154 28.681 5.99854 28.4938 5.99854 28.2676C5.99854 27.9925 6.1027 27.7793 6.31104 27.6279C6.521 27.4749 6.81559 27.3984 7.19482 27.3984H7.63428V27.1909C7.63428 27.033 7.58708 26.9077 7.49268 26.8149C7.39827 26.7205 7.25911 26.6733 7.0752 26.6733C6.91406 26.6733 6.77897 26.714 6.66992 26.7954C6.56087 26.8768 6.50635 26.9753 6.50635 27.0908H6.05225C6.05225 26.959 6.09863 26.832 6.19141 26.71C6.28581 26.5863 6.41276 26.4886 6.57227 26.417C6.7334 26.3454 6.90999 26.3096 7.10205 26.3096C7.40641 26.3096 7.64486 26.3861 7.81738 26.5391C7.98991 26.6904 8.07943 26.8996 8.08594 27.1665V28.3823C8.08594 28.6248 8.11686 28.8177 8.17871 28.9609V29H7.70508ZM6.95557 28.6558C7.09717 28.6558 7.23145 28.6191 7.3584 28.5459C7.48535 28.4727 7.57731 28.3774 7.63428 28.2603V27.7183H7.28027C6.72689 27.7183 6.4502 27.8802 6.4502 28.2041C6.4502 28.3457 6.4974 28.4564 6.5918 28.5361C6.6862 28.6159 6.80745 28.6558 6.95557 28.6558ZM9.85352 28.6802C10.0146 28.6802 10.1554 28.6313 10.2759 28.5337C10.3963 28.436 10.4631 28.314 10.4761 28.1675H10.9033C10.8952 28.3188 10.8431 28.4629 10.7471 28.5996C10.651 28.7363 10.5225 28.8454 10.3613 28.9268C10.2018 29.0081 10.0326 29.0488 9.85352 29.0488C9.49382 29.0488 9.20736 28.9292 8.99414 28.6899C8.78255 28.4491 8.67676 28.1203 8.67676 27.7036V27.6279C8.67676 27.3708 8.72396 27.1421 8.81836 26.9419C8.91276 26.7417 9.04785 26.5863 9.22363 26.4756C9.40104 26.3649 9.61019 26.3096 9.85107 26.3096C10.1473 26.3096 10.3931 26.3983 10.5884 26.5757C10.7853 26.7531 10.8903 26.9834 10.9033 27.2666H10.4761C10.4631 27.0957 10.3979 26.9557 10.2808 26.8467C10.1652 26.736 10.022 26.6807 9.85107 26.6807C9.62158 26.6807 9.44336 26.7637 9.31641 26.9297C9.19108 27.0941 9.12842 27.3325 9.12842 27.645V27.7305C9.12842 28.0348 9.19108 28.2692 9.31641 28.4336C9.44173 28.598 9.62077 28.6802 9.85352 28.6802ZM12.0239 25.7188V26.3584H12.5171V26.7075H12.0239V28.3457C12.0239 28.4515 12.0459 28.5312 12.0898 28.585C12.1338 28.637 12.2087 28.6631 12.3145 28.6631C12.3665 28.6631 12.4382 28.6533 12.5293 28.6338V29C12.4105 29.0326 12.2949 29.0488 12.1826 29.0488C11.9808 29.0488 11.8286 28.9878 11.7261 28.8657C11.6235 28.7437 11.5723 28.5703 11.5723 28.3457V26.7075H11.0913V26.3584H11.5723V25.7188H12.0239ZM17.0898 29H16.6187L14.8291 26.2607V29H14.3579V25.4453H14.8291L16.6235 28.1968V25.4453H17.0898V29ZM19.4824 29C19.4564 28.9479 19.4352 28.8551 19.4189 28.7217C19.209 28.9398 18.9583 29.0488 18.667 29.0488C18.4066 29.0488 18.1925 28.9756 18.0249 28.8291C17.8589 28.681 17.7759 28.4938 17.7759 28.2676C17.7759 27.9925 17.88 27.7793 18.0884 27.6279C18.2983 27.4749 18.5929 27.3984 18.9722 27.3984H19.4116V27.1909C19.4116 27.033 19.3644 26.9077 19.27 26.8149C19.1756 26.7205 19.0365 26.6733 18.8525 26.6733C18.6914 26.6733 18.5563 26.714 18.4473 26.7954C18.3382 26.8768 18.2837 26.9753 18.2837 27.0908H17.8296C17.8296 26.959 17.876 26.832 17.9688 26.71C18.0632 26.5863 18.1901 26.4886 18.3496 26.417C18.5107 26.3454 18.6873 26.3096 18.8794 26.3096C19.1838 26.3096 19.4222 26.3861 19.5947 26.5391C19.7673 26.6904 19.8568 26.8996 19.8633 27.1665V28.3823C19.8633 28.6248 19.8942 28.8177 19.9561 28.9609V29H19.4824ZM18.7329 28.6558C18.8745 28.6558 19.0088 28.6191 19.1357 28.5459C19.2627 28.4727 19.3547 28.3774 19.4116 28.2603V27.7183H19.0576C18.5042 27.7183 18.2275 27.8802 18.2275 28.2041C18.2275 28.3457 18.2747 28.4564 18.3691 28.5361C18.4635 28.6159 18.5848 28.6558 18.7329 28.6558ZM21.1841 25.7188V26.3584H21.6772V26.7075H21.1841V28.3457C21.1841 28.4515 21.2061 28.5312 21.25 28.585C21.2939 28.637 21.3688 28.6631 21.4746 28.6631C21.5267 28.6631 21.5983 28.6533 21.6895 28.6338V29C21.5706 29.0326 21.4551 29.0488 21.3428 29.0488C21.141 29.0488 20.9888 28.9878 20.8862 28.8657C20.7837 28.7437 20.7324 28.5703 20.7324 28.3457V26.7075H20.2515V26.3584H20.7324V25.7188H21.1841ZM22.6978 29H22.2461V26.3584H22.6978V29ZM22.2095 25.6577C22.2095 25.5845 22.2314 25.5226 22.2754 25.4722C22.321 25.4217 22.3877 25.3965 22.4756 25.3965C22.5635 25.3965 22.6302 25.4217 22.6758 25.4722C22.7214 25.5226 22.7441 25.5845 22.7441 25.6577C22.7441 25.731 22.7214 25.792 22.6758 25.8408C22.6302 25.8896 22.5635 25.9141 22.4756 25.9141C22.3877 25.9141 22.321 25.8896 22.2754 25.8408C22.2314 25.792 22.2095 25.731 22.2095 25.6577ZM24.2944 28.3872L24.9487 26.3584H25.4102L24.4629 29H24.1187L23.1616 26.3584H23.623L24.2944 28.3872ZM26.9067 29.0488C26.5487 29.0488 26.2573 28.9316 26.0327 28.6973C25.8081 28.4613 25.6958 28.1463 25.6958 27.7524V27.6694C25.6958 27.4074 25.7454 27.1738 25.8447 26.9688C25.9456 26.762 26.0856 26.6009 26.2646 26.4854C26.4453 26.3682 26.6406 26.3096 26.8506 26.3096C27.194 26.3096 27.4609 26.4227 27.6514 26.6489C27.8418 26.8752 27.937 27.1991 27.937 27.6206V27.8086H26.1475C26.154 28.069 26.2297 28.2798 26.3745 28.4409C26.521 28.6004 26.7065 28.6802 26.9312 28.6802C27.0907 28.6802 27.2257 28.6476 27.3364 28.5825C27.4471 28.5174 27.5439 28.4312 27.627 28.3237L27.9028 28.5386C27.6815 28.8787 27.3494 29.0488 26.9067 29.0488ZM26.8506 26.6807C26.6683 26.6807 26.5153 26.7474 26.3916 26.8809C26.2679 27.0127 26.1914 27.1982 26.1621 27.4375H27.4854V27.4033C27.4723 27.1738 27.4105 26.9964 27.2998 26.8711C27.1891 26.7441 27.0394 26.6807 26.8506 26.6807Z" fill="#9261FB"/>
</svg>
