<svg width="90" height="90" viewBox="0 0 24 25" fill="none" xmlns="http://www.w3.org/2000/svg">
<path d="M12 14.6762C13.1322 14.6762 14.05 13.7584 14.05 12.6262C14.05 11.494 13.1322 10.5762 12 10.5762C10.8678 10.5762 9.95 11.494 9.95 12.6262C9.95 13.7584 10.8678 14.6762 12 14.6762Z" fill="#61DAFB"/>
<path d="M12 16.8263C18.0751 16.8263 23 14.9459 23 12.6263C23 10.3067 18.0751 8.42627 12 8.42627C5.92487 8.42627 1 10.3067 1 12.6263C1 14.9459 5.92487 16.8263 12 16.8263Z" stroke="#61DAFB"/>
<path d="M8.36269 14.7263C11.4003 19.9875 15.4912 23.3124 17.5 22.1526C19.5088 20.9928 18.6749 15.7875 15.6373 10.5263C12.5997 5.26506 8.50883 1.9402 6.5 3.1C4.49117 4.2598 5.32513 9.46506 8.36269 14.7263Z" stroke="#61DAFB"/>
<path d="M8.36269 10.5262C5.32513 15.7874 4.49117 20.9927 6.5 22.1525C8.50883 23.3123 12.5997 19.9874 15.6373 14.7262C18.6749 9.46501 19.5088 4.25975 17.5 3.09995C15.4912 1.94015 11.4003 5.26501 8.36269 10.5262Z" stroke="#61DAFB"/>
</svg>
